Coordinates
version=1
nRows=26
nColumns=24
inDegrees=yes

Units are S.I. units (second, meters, Newtons, ...)
Angles are in degrees.

endheader
time	pelvis_tilt	pelvis_list	pelvis_rotation	pelvis_tx	pelvis_ty	pelvis_tz	hip_flexion_r	hip_adduction_r	hip_rotation_r	knee_angle_r	ankle_angle_r	subtalar_angle_r	mtp_angle_r	hip_flexion_l	hip_adduction_l	hip_rotation_l	knee_angle_l	ankle_angle_l	subtalar_angle_l	mtp_angle_l	lumbar_extension	lumbar_bending	lumbar_rotation
      3.48000000	     -6.66522247	     -6.27993460	      8.26277956	     -2.04186468	     -0.05094431	      0.44940939	     35.13489054	      3.18042637	     -0.38943548	    -16.06579370	     -2.18914992	      7.33691593	      2.93541915	     -7.64927214	     -7.25817174	      8.04584185	    -24.58797691	      8.81126098	     33.41395208	     18.62490370	      6.12693075	      5.54623318	    -13.02536435
      3.48500000	     -6.70259592	     -6.49424800	      8.41234140	     -2.03344178	     -0.05199078	      0.45030239	     35.24345834	      3.31028442	     -1.01788626	    -16.84148895	     -3.32406214	      7.41591820	      4.89294376	     -7.42858367	     -7.71356035	      7.55699728	    -25.57773397	      7.71377047	     34.11182238	     19.65439232	      6.33316742	      5.71062158	    -13.13943777
      3.49000000	     -6.74810366	     -6.88543634	      8.56243923	     -2.02477019	     -0.05298076	      0.45123177	     35.35194387	      3.63191049	     -1.65859651	    -17.69350331	     -3.97730289	      7.63899639	      5.09506585	     -7.12539167	     -8.38810790	      6.96863236	    -26.72042243	      6.77989157	     34.91518535	     19.94436148	      6.62994781	      6.06000847	    -13.24129714
      3.49500000	     -6.84877497	     -7.18629729	      8.70443697	     -2.01639339	     -0.05393589	      0.45224963	     35.53878506	      3.87433292	     -2.16712529	    -18.51313999	     -4.99967696	      7.58807466	      6.04202141	     -6.68439810	     -8.96826123	      6.40353663	    -27.88867566	      5.50419026	     35.70861302	     20.88806808	      6.91799826	      6.29475884	    -13.40150425
      3.50000000	     -6.91536988	     -7.60555080	      8.86517945	     -2.00795463	     -0.05483318	      0.45319024	     35.69058543	      4.22802177	     -2.71692999	    -19.35409625	     -5.68578793	      7.68424333	      6.31136087	     -6.18119885	     -9.69279795	      5.78102494	    -29.21477783	      4.26705725	     36.41155350	     21.34391258	      7.20548824	      6.67516773	    -13.50630710
      3.50500000	     -7.04354542	     -8.04119081	      8.99728087	     -1.99956481	     -0.05569749	      0.45420434	     35.91743831	      4.62375300	     -3.17080158	    -20.18465704	     -6.43036394	      7.59365136	      6.56504732	     -5.56182568	    -10.42951116	      5.20620046	    -30.55946425	      2.78934025	     37.02790816	     21.98885821	      7.55753652	      7.05784482	    -13.62009142
      3.51000000	     -7.18256152	     -8.49646369	      9.11062858	     -1.99121546	     -0.05649783	      0.45523591	     36.16100546	      5.06690280	     -3.53991942	    -21.01001604	     -7.11726470	      7.37572066	      6.74818807	     -4.87966828	    -11.18154605	      4.67754732	    -31.92736606	      1.07205156	     37.48339240	     22.74547401	      7.92317507	      7.46195725	    -13.71808954
      3.51500000	     -7.31328404	     -8.91378425	      9.16682755	     -1.98292234	     -0.05717563	      0.45626428	     36.39454073	      5.53252870	     -3.75158144	    -21.83763454	     -7.75135416	      7.00859297	      6.88470141	     -4.20837532	    -11.85703592	      4.23730951	    -33.22192834	     -1.05376425	     37.61407710	     23.88417596	      8.25755685	      7.84863459	    -13.71713019
      3.52000000	     -7.42700717	     -9.42921697	      9.28950770	     -1.97468472	     -0.05787310	      0.45724228	     36.62911088	      6.06192813	     -4.05244247	    -22.68545822	     -8.09390553	      6.72114543	      6.79416363	     -3.41715933	    -12.67822407	      3.80922352	    -34.71263382	     -2.97923414	     37.87659463	     24.36545631	      8.59668014	      8.32638280	    -13.84797204
      3.52500000	     -7.54842021	     -9.86101458	      9.30916482	     -1.96649666	     -0.05847403	      0.45829694	     36.87048202	      6.60271645	     -4.14261844	    -23.57060507	     -8.29065249	      6.32320414	      6.51044953	     -2.65429764	    -13.36517665	      3.43107119	    -36.08586452	     -5.36404047	     37.77545957	     25.35907678	      8.90637371	      8.73415647	    -13.81351807
      3.53000000	     -7.65832693	    -10.36369624	      9.42632634	     -1.95838321	     -0.05905615	      0.45923714	     37.09248639	      7.17105641	     -4.30778181	    -24.41383714	     -8.37598381	      5.78782868	      6.24329850	     -1.77202304	    -14.12556512	      3.23621085	    -37.62255841	     -7.56157594	     37.65592722	     25.63593750	      9.22513173	      9.19336946	    -13.94416913
      3.53500000	     -7.77406274	    -10.79764085	      9.46071405	     -1.95034813	     -0.05962785	      0.46021871	     37.32706967	      7.73958133	     -4.33771576	    -25.31260378	     -8.25825006	      5.25197961	      5.84193422	     -0.89103211	    -14.78948105	      3.01696923	    -39.11294752	     -9.97432407	     37.32250430	     26.16038285	      9.51491115	      9.60784721	    -13.94800125
      3.54000000	     -7.84684877	    -11.22082874	      9.46997376	     -1.94237272	     -0.06010563	      0.46113325	     37.49182825	      8.32561697	     -4.34705670	    -26.18493656	     -7.96762148	      4.79211864	      5.37648610	     -0.03561735	    -15.41130293	      2.89260359	    -40.60283471	    -12.43860195	     36.84801086	     26.59447393	      9.73974575	     10.03612265	    -13.92324863
      3.54500000	     -7.90585554	    -11.62707820	      9.47283807	     -1.93438824	     -0.06054734	      0.46200731	     37.61102398	      8.91627168	     -4.33159784	    -27.03039477	     -7.51625865	      4.29898462	      4.89106564	      0.82686599	    -15.98484565	      2.85769564	    -42.10023778	    -14.87383905	     36.22832979	     26.84303916	      9.95731029	     10.45084327	    -13.86509407
      3.55000000	     -7.93358160	    -12.00387417	      9.46390197	     -1.92652665	     -0.06093394	      0.46281760	     37.66455996	      9.49848224	     -4.28454152	    -27.82646709	     -6.99370582	      3.79515306	      4.47637297	      1.69106172	    -16.49255598	      2.89618243	    -43.63436731	    -17.19639367	     35.47268989	     26.86840785	     10.10963943	     10.85315454	    -13.79214201
      3.55500000	     -7.89246394	    -12.34678876	      9.46654627	     -1.91873540	     -0.06121090	      0.46357749	     37.60666133	     10.05926657	     -4.27680737	    -28.55706942	     -6.46598094	      3.22473996	      4.24737355	      2.50849343	    -16.94116811	      3.00010363	    -45.18785299	    -19.35696534	     34.59182222	     26.61239316	     10.17286154	     11.22703403	    -13.69460430
      3.56000000	     -7.89271708	    -12.67372616	      9.40868711	     -1.91105173	     -0.06150146	      0.46433934	     37.55402963	     10.62351077	     -4.24156761	    -29.23018040	     -5.86866351	      2.74765381	      3.99108416	      3.39025902	    -17.34195359	      3.09864814	    -46.75463240	    -21.42278683	     33.63728711	     26.45673510	     10.24940057	     11.60329264	    -13.56226691
      3.56500000	     -7.89901959	    -12.98925027	      9.33810792	     -1.90340894	     -0.06177140	      0.46507209	     37.45682803	     11.18532255	     -4.17188064	    -29.83472955	     -5.15766082	      2.35043753	      3.70985202	      4.29215793	    -17.68942879	      3.26223626	    -48.31022336	    -23.34542739	     32.55547671	     26.38597593	     10.32900889	     11.96632736	    -13.38184616
      3.57000000	     -7.85514014	    -13.31825095	      9.24492913	     -1.89583969	     -0.06195228	      0.46579397	     37.25886936	     11.77210312	     -4.14485100	    -30.33696914	     -4.47642925	      2.00570535	      3.56014652	      5.16220647	    -18.04780085	      3.40520633	    -49.88396259	    -25.01242019	     31.42359147	     26.22445454	     10.33805732	     12.36454550	    -13.18269039
      3.57500000	     -7.89175274	    -13.60254665	      9.10531622	     -1.88836768	     -0.06217089	      0.46652617	     37.09816874	     12.31732969	     -4.04986388	    -30.80254341	     -3.62021339	      1.87737190	      3.25538628	      6.12088561	    -18.31032788	      3.56890869	    -51.43050091	    -26.58362358	     30.16495563	     26.40281734	     10.41048823	     12.71250392	    -12.95809895
      3.58000000	     -7.78364240	    -13.98295636	      8.98681038	     -1.88085380	     -0.06219730	      0.46723729	     36.71663205	     12.97058675	     -4.06018654	    -31.06485532	     -2.98240350	      1.59214041	      3.31454691	      6.96103819	    -18.71041728	      3.71337414	    -53.01309150	    -27.68235702	     28.97418272	     26.21029032	     10.35428144	     13.18421472	    -12.70143553
      3.58500000	     -7.77218442	    -14.22060096	      8.88808362	     -1.87366703	     -0.06221462	      0.46788145	     36.40942778	     13.44201241	     -4.03294503	    -31.32539068	     -2.31114845	      1.36775190	      3.30608736	      7.94405861	    -18.85804151	      3.97308961	    -54.58166448	    -28.75800402	     27.44924859	     26.24886581	     10.33286898	     13.47936697	    -12.44666758
      3.59000000	     -7.76295180	    -14.50984150	      8.74785762	     -1.86642079	     -0.06216583	      0.46858048	     36.04249262	     13.97437557	     -4.01108254	    -31.46517198	     -1.60627638	      1.31456392	      3.36277241	      8.93211156	    -19.07463107	      4.18478057	    -56.11467175	    -29.62964384	     25.97967301	     26.43358805	     10.33519390	     13.83568258	    -12.15369830
      3.59500000	     -7.70922113	    -14.80988194	      8.61699615	     -1.85934393	     -0.06204696	      0.46925297	     35.60406734	     14.51311470	     -4.01851464	    -31.52906436	     -0.99024955	      1.24225076	      3.47122228	      9.90624593	    -19.29286358	      4.40070948	    -57.65577338	    -30.15610368	     24.45090990	     26.62205108	     10.26354126	     14.21198808	    -11.86381114
      3.60000000	     -7.67316550	    -15.08831769	      8.49093327	     -1.85233105	     -0.06184429	      0.46991125	     35.13575671	     15.01847552	     -4.01142133	    -31.51212296	     -0.38044224	      1.23461637	      3.62493382	     10.91863906	    -19.46152782	      4.64250795	    -59.15668736	    -30.54454491	     22.86406148	     26.86588185	     10.20697280	     14.55353018	    -11.54897321
      3.60500000	     -7.62600105	    -15.35827791	      8.36535375	     -1.84541258	     -0.06156147	      0.47057153	     34.62300058	     15.51496885	     -3.99599320	    -31.42957244	      0.19299166	      1.25383356	      3.80543056	     11.93698664	    -19.60720090	      4.89216050	    -60.62342640	    -30.72662040	     21.27317339	     27.13660254	     10.12942690	     14.89207430	    -11.22499311
